<svg xmlns="http://www.w3.org/2000/svg" version="1.1" id="Layer_1" x="0px" y="0px" width="100%" viewBox="0 0 512 512" enable-background="new 0 0 512 512" xml:space="preserve">
<path fill="#fff" opacity="1.000000" stroke="none" d=" M1.000001,427.467957   C5.847739,418.545410 10.698163,410.092346 15.542708,401.635956   C32.403755,372.204193 49.289211,342.786377 66.113899,313.333862   C78.816330,291.097626 91.588821,268.899292 104.051659,246.528961   C114.000504,228.671158 134.295090,225.151611 149.432587,238.972992   C151.377670,240.748993 152.950439,243.014923 156.105194,244.093185   C160.127151,237.676636 162.434006,230.383118 165.444794,223.472214   C176.123795,198.959854 186.518219,174.323547 197.026108,149.736633   C207.661713,124.850861 218.207062,99.925774 229.005066,75.110634   C232.075150,68.055222 234.365967,60.528286 241.650177,55.925941   C255.431122,47.218773 273.942963,51.813076 281.291931,66.452660   C304.522156,112.728561 327.641602,159.060059 350.793213,205.375397   C376.475464,256.753296 402.172791,308.123718 427.766724,359.545563   C429.651703,363.332703 433.350616,364.681335 436.318146,366.842255   C458.832031,383.236694 481.500641,399.420593 504.245667,415.493835   C508.311981,418.367371 509.993469,422.675659 512.763794,426.755188   C513.000000,432.688049 513.000000,438.376068 512.794434,444.804871   C508.023468,455.527954 500.811157,462.299988 489.380310,462.307190   C334.578522,462.404541 179.776611,462.363495 24.974754,462.402405   C20.472170,462.403534 16.568802,460.915833 12.672080,458.909393   C6.792193,455.881805 4.335807,450.097565 1.000000,445.000000   C1.000000,439.311951 1.000000,433.623932 1.000001,427.467957  M241.347672,230.075134   C236.068100,219.493057 230.648041,208.977524 225.586472,198.292175   C223.853775,194.634369 221.705948,192.736298 217.571503,193.311447   C215.937454,193.538757 214.229004,193.488632 212.581909,193.310562   C209.220749,192.947174 207.554596,194.468231 206.262283,197.539520   C197.674133,217.949982 189.041595,238.344864 180.078644,258.592163   C178.101639,263.058228 178.745575,265.725464 182.348297,268.841278   C203.892990,287.474365 225.324295,306.240021 246.648499,325.125092   C249.708374,327.834961 251.615982,327.829865 254.446609,324.930450   C265.036499,314.083038 275.826080,303.430450 286.554169,292.718170   C299.653870,279.637878 312.019836,278.614685 327.053497,289.348480   C342.372375,300.285950 357.670074,311.253418 373.038422,322.120911   C374.503143,323.156647 375.813751,325.191284 378.287994,324.121307   C378.824371,321.522491 377.199463,319.641144 376.203522,317.644135   C358.513733,282.173157 340.775665,246.726196 323.050873,211.272644   C320.149139,205.468491 320.136749,205.437363 314.858215,208.951920   C298.635864,219.752975 282.479218,230.653610 266.196503,241.362701   C257.208862,247.273819 249.092117,245.048782 244.161987,235.646713   C243.311249,234.024261 242.508850,232.376465 241.347672,230.075134  M207.230896,326.254120   C203.677658,322.167511 199.224060,321.028137 193.864441,321.231049   C184.380814,321.590118 174.871964,321.441406 165.377670,321.276154   C161.949509,321.216492 159.434433,322.281281 157.009445,324.732849   C142.832703,339.065155 128.556763,353.300201 114.228043,367.480927   C107.252296,374.384583 99.727425,374.340973 92.686073,367.531464   C88.494537,363.477936 84.448151,359.274139 80.250565,355.227051   C76.321663,351.438995 75.742661,351.535614 73.009758,356.291077   C63.797726,372.320831 54.601418,388.359650 45.440334,404.418579   C41.066204,412.086151 36.674370,419.747406 32.500034,427.523956   C29.642956,432.846527 31.182156,435.365875 37.078049,435.637634   C37.909714,435.675995 38.743931,435.666718 39.576965,435.666748   C72.400597,435.668579 105.224472,435.609192 138.047531,435.746399   C142.083405,435.763245 144.973373,434.379517 147.720718,431.623932   C174.305405,404.959106 200.908249,378.311859 227.651581,351.806580   C230.908997,348.578156 230.568680,346.547241 227.338959,343.821503   C220.719620,338.235138 214.278992,332.437012 207.230896,326.254120  M208.372482,408.858551   C204.175842,413.137573 199.936569,417.375916 195.798660,421.710999   C193.334946,424.292023 189.786743,426.561462 191.470749,430.975616   C193.283035,435.726013 197.711746,435.239990 201.637360,435.572266   C202.960953,435.684326 204.300415,435.617798 205.632614,435.618286   C224.117813,435.625122 242.603027,435.611237 261.088196,435.638458   C289.889679,435.680878 318.693420,435.795441 347.455902,433.950531   C356.728363,433.355774 365.712372,431.917725 372.299805,424.260376   C374.862030,421.282013 375.651947,418.546417 372.206482,415.726288   C369.688843,413.665619 368.574219,410.977753 368.983429,407.764069   C369.640228,402.605560 367.296844,399.932648 362.282043,399.256836   C360.144806,398.968842 358.042236,398.367126 355.900208,398.181641   C347.541290,397.457703 339.547119,394.847473 333.316376,389.607880   C326.421967,383.810150 318.432861,380.341675 310.831970,376.002899   C307.952087,374.359039 305.009125,374.083954 301.710510,374.911957   C281.867004,379.893158 262.103058,385.294800 242.076630,389.407257   C228.643066,392.165863 217.275818,397.372864 208.372482,408.858551  M292.259796,191.735687   C296.000641,189.246506 299.579437,186.452087 303.528656,184.355453   C307.348724,182.327362 307.719727,180.345367 305.780273,176.512222   C290.307983,145.932846 275.063843,115.238098 259.709747,84.598763   C259.021118,83.224586 258.810333,81.308350 256.287628,80.910950   C244.240829,109.067978 232.177429,137.263748 220.160629,165.350632   C222.708328,167.338669 224.969940,166.794495 227.019852,166.679733   C235.905106,166.182236 241.764374,169.898987 245.460739,178.123093   C249.822235,187.827026 254.872528,197.223068 259.698059,206.715027   C260.481262,208.255569 260.721680,210.307617 263.234161,211.059952   C272.579285,204.838577 282.120331,198.486755 292.259796,191.735687  M309.794250,310.210114   C307.461609,309.077026 306.434509,311.095062 305.236206,312.272827   C293.358734,323.946442 281.581451,335.722168 269.681427,347.372559   C266.633881,350.356171 263.253113,352.999390 260.025421,355.799011   C260.445709,356.312042 260.865997,356.825104 261.286255,357.338135   C274.471497,354.070831 287.693542,350.943024 300.825958,347.475861   C307.137268,345.809570 312.806335,346.459564 318.610931,349.494141   C330.711487,355.820221 343.010010,361.768005 355.238464,367.848602   C356.706726,368.578674 358.233215,370.024902 359.848022,369.395966   C366.252136,366.901642 372.361298,363.797424 379.207306,359.755371   C355.562744,342.849548 332.963104,326.690826 309.794250,310.210114  M168.054855,292.087982   C155.308289,280.927246 142.561722,269.766541 129.378738,258.223694   C127.974785,260.433716 126.858559,262.044128 125.889587,263.738770   C116.053062,280.941620 106.245193,298.160828 96.419762,315.370026   C89.785805,326.989410 89.942390,326.827332 99.238258,336.428345   C102.611168,339.911987 104.596321,339.324097 107.623665,336.218597   C119.017952,324.530182 130.677719,313.101013 142.124634,301.463226   C146.718521,296.792694 152.024704,294.358917 158.624603,294.691101   C161.780731,294.849976 164.958771,294.801392 168.115967,294.637115   C170.527954,294.511597 169.258820,293.379486 168.054855,292.087982  z"/>
</svg>